<svg xmlns="http://www.w3.org/2000/svg" width="64" height="64" viewBox="0 0 64 64">
  <defs>
    <style>
      .e15d487f-d862-4307-96cf-85c8000c41fd {
        fill: #fff;
      }
    </style>
  </defs>
  <title>delosian-favicon</title>
  <g id="871a7e77-eb94-4048-b31c-d9ea2448b95b" data-name="Layer 2">
    <rect width="64" height="64"/>
  </g>
  <g id="b0fe271c-e07f-4d24-ab54-3c2835922ae1" data-name="Layer 1">
    <path class="e15d487f-d862-4307-96cf-85c8000c41fd" d="M11.67,20.59c0-.54.1-1-.34-1.4a.94.94,0,0,1-.17-.64c0-1.4,0-2.81,0-4.21a.86.86,0,0,1,.92-.92.89.89,0,0,1,.92.93c0,1.42,0,2.84,0,4.26a1.81,1.81,0,0,1-.39.84c-.13.2-.31.92-.17,1.1a.37.37,0,0,0,.26.11h2.73c.06-.5.15-1-.3-1.33a.77.77,0,0,1-.19-.53c0-1,0-2,0-3a.93.93,0,0,1,1.85,0q0,1.45,0,2.89a.83.83,0,0,1-.2.58c-.51.4-.32.9-.32,1.43h5.13V19.47h-1.9a1.39,1.39,0,0,1-1.55-1.55c0-1.36,0-2.71,0-4.07,0-.17.16-.33.22-.5a1.8,1.8,0,0,0,.09-.41,8,8,0,0,1,.16-1.4,1.91,1.91,0,0,1,2-1.3,1.85,1.85,0,0,1,1.81,1.51,1.2,1.2,0,0,0,.42.7,1.57,1.57,0,0,1,.53,1c.05,1.73,0,3.46,0,5.19,0,.6-.38.86-.93.93v1.23h2.39V11.91H39.4v8.9c.74,0,1.43,0,2.11,0,.1,0,.25-.18.26-.3a7.23,7.23,0,0,0,0-.91c-.82-.16-1-.68-1-1.44,0-1.5,0-3,0-4.51a1.4,1.4,0,0,1,.75-1.38.53.53,0,0,0,.2-.35,1.85,1.85,0,0,1,1.81-1.69,2,2,0,0,1,2.17,1.62,22,22,0,0,1,.35,2.9c.06,1,0,2.09,0,3.14s-.51,1.57-1.61,1.59H42.6v1.25h5.2c0-.51.18-1-.31-1.41a1.14,1.14,0,0,1-.23-.77c0-.93,0-1.86,0-2.79a.83.83,0,0,1,.86-.81.86.86,0,0,1,.94.84c0,1,0,2,0,2.94a2.2,2.2,0,0,1-.31.73,1.72,1.72,0,0,0-.22.45c-.08.74,0,.76.71.74s1.5,0,2.29,0c0-.54.15-1-.35-1.41a1,1,0,0,1-.21-.67c0-1.4,0-2.81,0-4.21a.91.91,0,0,1,.93-.93.9.9,0,0,1,.94,1c0,1.39,0,2.78,0,4.17,0,.29-.24.57-.34.87a6.72,6.72,0,0,0-.19.83c-.09.46.3.37.54.44.7.21,1.42.38,2.11.62a1.15,1.15,0,0,1,.89,1.27c-.06,1.3,0,2.61,0,3.92a1,1,0,0,1-.25.59c-.39.44-.85.82-1.24,1.26A1.17,1.17,0,0,0,54,29c0,1.14,0,2.29,0,3.43a1.07,1.07,0,0,1-.28.67c-1,1-2,1.94-3.14,3V33l-.12,0c-.6.57-1.2,1.13-1.78,1.72a.87.87,0,0,0-.12.55c0,1.93,0,3.86,0,5.78a1.09,1.09,0,0,1-.33.87c-.88.85-1.76,1.7-2.72,2.64V40.2c-.71.68-1.33,1.25-1.92,1.85-.09.09-.08.3-.08.46,0,1.86,0,3.72,0,5.59a1.25,1.25,0,0,1-.47,1c-.91.79-1.77,1.65-2.72,2.56V46.81l-.13-.07c-.61.6-1.22,1.2-1.81,1.82-.09.09-.06.31-.06.47,0,1.16,0,2.32,0,3.48a1.2,1.2,0,0,1-.54,1.2,4.59,4.59,0,0,0-.52.47V51.64l-.12-.06c-.57.52-1.16,1-1.71,1.57-.08.08-.08.27-.08.41,0,1.16,0,2.32,0,3.48a1.05,1.05,0,0,1-.37.89c-.94.84-1.84,1.72-2.8,2.63a25,25,0,0,0-2-1.89,2.69,2.69,0,0,1-1-2.45c0-6.06,0-12.12,0-18.18A1.18,1.18,0,0,0,28.61,37c-.49-.35-.92-.78-1.47-1.25V53.58l-1-.91c-.69-.63-1.39-1.25-2.07-1.89a1.65,1.65,0,0,1-.25-.54.09.09,0,0,1,0,0,3.09,3.09,0,0,0-1.49-3.35A8.91,8.91,0,0,1,21,45.61,1,1,0,0,1,20.7,45q0-9.56,0-19.12c0-.06,0-.13,0-.28a101.82,101.82,0,0,0,18.82.46V37.71l2-.55V25.86c1.24-.15,2.44-.25,3.63-.46,1.88-.33,3.75-.7,5.61-1.12a28.52,28.52,0,0,0,3-.95,4.06,4.06,0,0,0,.76-.47l-.05-.14H9.57l-.07.12a5.71,5.71,0,0,0,1.15.62c1.87.51,3.76,1,5.65,1.45.79.19,1.6.3,2.41.45V44.3a1.18,1.18,0,0,1-.25-.12c-.86-.79-1.7-1.59-2.56-2.37a1,1,0,0,1-.36-.86c0-2.79,0-5.59,0-8.38a1.12,1.12,0,0,0-.47-1c-.48-.36-.94-.76-1.53-1.25v5.15l-.14,0A20.1,20.1,0,0,0,11.66,34a3.16,3.16,0,0,1-1.57-3.45,2.89,2.89,0,0,0-1.33-3.23,1.29,1.29,0,0,1-.57-1.26c0-1.26,0-2.52,0-3.77a.76.76,0,0,1,.47-.83c.78-.28,1.57-.53,2.36-.78A5.91,5.91,0,0,1,11.67,20.59Zm21.17.28v-7.3H31.26v7.3Zm-6.52-7.32c0,.22,0,.41,0,.61q0,2.82,0,5.63c0,1.11,0,1.09,1.13,1.11.41,0,.53-.13.52-.53,0-2.11,0-4.21,0-6.32,0-.16,0-.32,0-.5Zm9.84,7.29h1.53V13.56H36.17ZM32.77,7.57a2.21,2.21,0,0,0-1.61,0c-2.19.79-4.4,1.54-6.63,2.32v.47h15V9.92C37.24,9.14,35,8.38,32.77,7.57ZM44.22,55.15v3.4h3.37v-3.4Zm-32.31-14c0-1.09,0-2.13,0-3.17,0-.09-.15-.27-.24-.27-1,0-2.06,0-3.12,0v3.45Zm39.68,1h3.33V38.77H51.59ZM20.53,52.64H17.7v2.78h2.83Zm26.9-2.4h2.3V48h-2.3ZM14.09,46.44v2.27h2.22V46.44Z" transform="translate(-1.16 -0.27)"/>
  </g>
</svg>
