<?xml version="1.0" encoding="UTF-8"?>
<svg id="Layer_1" data-name="Layer 1" xmlns="http://www.w3.org/2000/svg" viewBox="0 0 64 57.44">
  <defs>
    <style>
      .cls-1 {
        fill: #253672;
      }

      .cls-1, .cls-2 {
        stroke-width: 0px;
      }

      .cls-2 {
        fill: #ff004d;
      }
    </style>
  </defs>
  <path class="cls-1" d="m44.15.8h.25S60.64,0,60.64,0c1.5-.07,2.77.82,2.82,2.01l.54,13.3c.06,1.45-1.29,2.59-2.98,2.53l-15.53-.52c-1.44-.05-2.69,1-2.82,2.36l-1.36,14.91c-.15,1.65-1.55,2.84-3.09,2.63l-14.41-1.97c-1.31-.18-2.11-1.53-1.81-3l3.16-15.61.05-.23,2.64-13.03c.2-1.01,1.25-1.86,2.35-1.91l13.95-.67Z"/>
  <path class="cls-2" d="m17.92,17.12h-.2s-11.58-.04-11.58-.04c-.91,0-1.92.81-2.26,1.83L.14,30.06c-.4,1.19.06,2.24,1.03,2.34l10.39,1.03c1.12.11,1.77,1.29,1.43,2.64l-3.67,14.75c-.4,1.62.27,3.18,1.53,3.46l13.94,3.11c1.5.33,2.96-.91,3.23-2.75l2.83-19.29.04-.29,2.31-15.72c.18-1.21-.69-2.17-1.92-2.18l-13.35-.05Z"/>
</svg>