<svg xmlns="http://www.w3.org/2000/svg" style="display: none;">
  <defs>
    <symbol id="katakana-project" viewBox="0 0 483 135">
      <path d="M105.91,104.38H1.22L41.86.05H64.13ZM76.23,86.8,52.75,24.39,30,86.8Zm120.69,46.33h-20V65.81q0-10.1-.82-14.2A11.37,11.37,0,0,0,172.26,45a11.53,11.53,0,0,0-7.72-2.56,15.74,15.74,0,0,0-9.82,3.2,14.46,14.46,0,0,0-5.44,8.22q-1.25,5-1.25,16.33v34.23H128V28.8h18.57V39.9q9.89-12.81,25-12.81,8.75,0,14.8,3.77a19.54,19.54,0,0,1,8.29,9.61q2.24,5.84,2.24,16.94ZM147,18.62h-9.11q-.07-1.64-.07-2.56,0-7.47,3.63-11.49a12,12,0,0,1,9.32-4,19,19,0,0,1,4.63.53,58.41,58.41,0,0,1,7.79,3.06q5.66,2.53,8.86,2.53a5.38,5.38,0,0,0,3.81-1.42,7.68,7.68,0,0,0,2-4.77h9.25q-.07,9.61-3.59,13.73a11.38,11.38,0,0,1-9.07,4.13,22.9,22.9,0,0,1-4.77-.5q-1.64-.43-8.18-2.92t-9.54-2.49a4.6,4.6,0,0,0-3.56,1.39Q147.11,15.21,147,18.62Zm151.43,85.75H277.83l-13-34.3Q262.32,63.67,259,53q-2.78,9.11-5.62,16.72l-13,34.66H220l29-75.51L238,.05h19.71L269,28.87ZM316,65.52a40.89,40.89,0,0,1,4.91-19.29A33.7,33.7,0,0,1,334.8,32a41.29,41.29,0,0,1,20.1-4.91Q372,27.09,383,38.23t11,28.15q0,17.15-11.07,28.43T355,106.09a43.89,43.89,0,0,1-19.82-4.7,32.22,32.22,0,0,1-14.34-13.77Q316,78.55,316,65.52Zm20.5,1.07q0,11.24,5.34,17.22a17.45,17.45,0,0,0,26.3,0q5.3-6,5.3-17.36,0-11.1-5.3-17.08a17.45,17.45,0,0,0-26.3,0Q336.47,55.35,336.47,66.59ZM484.42,30.51,480.29,47.3a49.45,49.45,0,0,0-14.94-2.56q-13.09,0-21.71,7.29T435,69.22a12.5,12.5,0,0,0,4.55,10.21q4.55,3.74,16.3,6.73,14.16,3.63,20.5,9.32t6.33,15.73a20.55,20.55,0,0,1-8.65,17.44q-8.65,6.4-22.67,6.4-4.2,0-13.38-1l4.13-17.22a42.56,42.56,0,0,0,10,1.49,13.94,13.94,0,0,0,7.51-1.89,6.3,6.3,0,0,0,.36-10.53q-2.67-1.89-10.07-3.38-17.58-3.7-25.41-12.35a29,29,0,0,1-7.83-20.1,41.24,41.24,0,0,1,6-21.14,42.26,42.26,0,0,1,16.79-16A50.93,50.93,0,0,1,464,27.09,56.36,56.36,0,0,1,484.42,30.51Z" />
    </symbol>
    <symbol id="katakana-profile" viewBox="0 0 128 766">
      <path d="M29,766.73V667.36H44.78v19.05h56v19h-56V728.7h56v19h-56v19.05Zm71.74-173.07v19.59L68.22,625.61Q62.14,628,52,631.09q8.65,2.63,15.88,5.34l32.9,12.29v19.46L29.1,640.61,1.74,651.08V632.37L29.1,621.63ZM29,578.46v-18.1a86.53,86.53,0,0,0,37.83,8.85q11.08,0,15.81-4t4.73-9.36a10,10,0,0,0-2.3-6.52,10.29,10.29,0,0,0-5.67-3.61A48.12,48.12,0,0,0,69.09,545H47.34V526H69.09a50.45,50.45,0,0,0,10.2-.78,10,10,0,0,0,5.81-3.65A10.15,10.15,0,0,0,87.4,515a11.58,11.58,0,0,0-4.93-9.49q-4.93-3.81-16.35-3.82a84.7,84.7,0,0,0-18,2.3A85.54,85.54,0,0,0,29,510.57v-18.1q6.28-3.78,17.19-7a71.47,71.47,0,0,1,20-3.21q15.81,0,26,8.38t10.17,22q0,16.35-15.06,22.77,15.07,6.49,15.06,22.83,0,13.71-10.2,22.06t-25.94,8.34a71.44,71.44,0,0,1-20-3.21Q35.32,582.24,29,578.46Zm0-100.79V422.48H44.78V440h56v19h-56v18.65Zm34.86-64A38.81,38.81,0,0,1,45.59,409a32,32,0,0,1-13.51-13.21,39.19,39.19,0,0,1-4.66-19.08Q27.41,360.4,38,350t26.72-10.4q16.28,0,27,10.5t10.71,26.45a41.66,41.66,0,0,1-4.46,18.81A30.58,30.58,0,0,1,84.87,409Q76.25,413.63,63.89,413.63Zm1-19.46q10.67,0,16.35-5.07a16.56,16.56,0,0,0,0-25q-5.67-5-16.48-5-10.54,0-16.21,5a16.56,16.56,0,0,0,0,25Q54.23,394.17,64.91,394.17Zm-44.65-6.89L.05,378V356.68l20.2,18.58Zm80.52-120.72L29,295.47V275.55L65.65,262l12.23-3.92q-4.66-1.55-6.15-2-3-.95-6.08-2L29,240.49V221l71.74,28.51Zm27.29-122.27v19H64.16a79.1,79.1,0,0,0-13.48.78,10.79,10.79,0,0,0-6.32,3.65A11,11,0,0,0,41.94,175a14.94,14.94,0,0,0,3,9.32,13.72,13.72,0,0,0,7.8,5.17q4.76,1.18,15.5,1.18h32.49v19H29V192H39.57q-12.16-9.39-12.16-23.71A26.06,26.06,0,0,1,31,154.29a18.56,18.56,0,0,1,9.12-7.87q5.54-2.13,16.08-2.13ZM29,43.36H44.78V60.72a38.54,38.54,0,0,1,19.86-5.27A37.9,37.9,0,0,1,91.35,65.69q11,10.24,11,27.06,0,16.42-10.27,26.58T65.24,129.49q-16.48,0-27.16-10T27.41,92.2A49.89,49.89,0,0,1,29,80.52ZM64.91,110q10.27,0,16.15-4.93a15.75,15.75,0,0,0,5.88-12.63A16,16,0,0,0,81.25,80q-5.67-5-16.69-5-9.73,0-15.71,4.8a15.48,15.48,0,0,0-6,12.7,15.72,15.72,0,0,0,5.88,12.67Q54.64,110,64.91,110ZM20.25,31.34.05,22V.73l20.2,18.58Zm80.52-1.15H29v-19h71.74Z" />
    </symbol>
  </defs>
</svg>
